<svg width="26" height="27" viewBox="0 0 26 27" fill="none" xmlns="http://www.w3.org/2000/svg">
<path d="M25 17.9795H23C22.4 17.9795 22 18.3795 22 18.9795V21.4795C22 21.7795 21.8 21.9795 21.5 21.9795H4.5C4.2 21.9795 4 21.7795 4 21.4795V18.9795C4 18.3795 3.6 17.9795 3 17.9795H1C0.4 17.9795 0 18.3795 0 18.9795V24.9795C0 25.5795 0.4 25.9795 1 25.9795H25C25.6 25.9795 26 25.5795 26 24.9795V18.9795C26 18.3795 25.6 17.9795 25 17.9795Z" fill="#EDA422"/>
<path d="M12.3 17.6795C12.5 17.8795 12.8 17.9795 13 17.9795C13.2 17.9795 13.5 17.8795 13.7 17.6795L19.7 11.6795C19.9 11.4795 20 11.2795 20 10.9795C20 10.6795 19.9 10.4795 19.7 10.2795L18.3 8.87949C18.1 8.67949 17.9 8.57949 17.6 8.57949C17.3 8.57949 17.1 8.67949 16.9 8.87949L15.9 9.87949C15.6 10.1795 15 9.97949 15 9.47949V2.97949C15 2.37949 14.6 1.97949 14 1.97949H12C11.4 1.97949 11 2.37949 11 2.97949V9.57949C11 9.97949 10.5 10.2795 10.1 9.97949L9.1 8.97949C8.9 8.77949 8.7 8.67949 8.4 8.67949C8.1 8.67949 7.9 8.77949 7.7 8.97949L6.3 10.3795C6.1 10.5795 6 10.7795 6 11.0795C6 11.3795 6.1 11.5795 6.3 11.7795L12.3 17.6795Z" fill="#EDA422"/>
</svg>
