<svg width="24" height="25" viewBox="0 0 24 25" fill="none" xmlns="http://www.w3.org/2000/svg">
<g clip-path="url(#clip0)">
<path d="M17 2.73145H7C4.23858 2.73145 2 4.97002 2 7.73145V17.7314C2 20.4929 4.23858 22.7314 7 22.7314H17C19.7614 22.7314 22 20.4929 22 17.7314V7.73145C22 4.97002 19.7614 2.73145 17 2.73145Z" stroke="#EDA422" stroke-width="2" stroke-linecap="round" stroke-linejoin="round"/>
<path d="M15.9997 12.1017C16.1231 12.934 15.981 13.784 15.5935 14.5308C15.206 15.2776 14.5929 15.8832 13.8413 16.2614C13.0898 16.6397 12.2382 16.7713 11.4075 16.6377C10.5768 16.504 9.80947 16.1118 9.21455 15.5169C8.61962 14.922 8.22744 14.1546 8.09377 13.324C7.96011 12.4933 8.09177 11.6416 8.47003 10.8901C8.84829 10.1386 9.45389 9.52549 10.2007 9.13799C10.9475 8.75049 11.7975 8.60834 12.6297 8.73175C13.4786 8.85763 14.2646 9.25321 14.8714 9.86005C15.4782 10.4669 15.8738 11.2528 15.9997 12.1017Z" stroke="#EDA422" stroke-width="2" stroke-linecap="round" stroke-linejoin="round"/>
</g>
<defs>
<clipPath id="clip0">
<rect width="24" height="24" fill="white" transform="translate(0 0.731445)"/>
</clipPath>
</defs>
</svg>
