<svg width="117" height="23" viewBox="0 0 117 23" fill="none" xmlns="http://www.w3.org/2000/svg">
<path d="M112.033 2.91276C112.033 1.59662 113.101 0.517824 114.408 0.517824C115.039 0.517824 115.628 0.776735 116.085 1.20826C116.543 1.66135 116.782 2.26548 116.782 2.89118C116.782 3.51689 116.543 4.12101 116.085 4.57411C115.628 5.0272 115.039 5.28612 114.408 5.28612C113.101 5.28612 112.033 4.22889 112.033 2.91276ZM111.837 2.91276C111.837 4.33677 112.992 5.50188 114.43 5.50188C115.127 5.50188 115.758 5.24296 116.238 4.74672C116.717 4.25047 117 3.60319 117 2.91276C117 2.22233 116.739 1.57505 116.238 1.0788C115.737 0.582552 115.105 0.32364 114.43 0.32364C112.992 0.32364 111.837 1.48874 111.837 2.91276ZM113.449 4.44465H113.82V3.2364H114.647C114.778 3.2364 114.887 3.2364 114.974 3.27955C115.083 3.34428 115.148 3.47373 115.17 3.64634L115.214 4.12101C115.214 4.22889 115.214 4.29362 115.214 4.33677C115.236 4.37993 115.236 4.4015 115.257 4.42308H115.715V4.35835C115.649 4.33677 115.628 4.27204 115.606 4.18574C115.584 4.14259 115.584 4.05629 115.584 3.94841L115.562 3.58161C115.562 3.40901 115.519 3.30113 115.475 3.2364C115.41 3.17167 115.323 3.10694 115.214 3.06379C115.344 2.99906 115.432 2.91276 115.497 2.80488C115.562 2.697 115.584 2.56754 115.584 2.39493C115.584 2.07129 115.453 1.85553 115.214 1.72608C115.083 1.66135 114.909 1.63977 114.713 1.63977H113.471L113.449 4.44465ZM113.798 2.91276V1.94184H114.669C114.8 1.94184 114.909 1.96341 114.974 2.00657C115.105 2.07129 115.17 2.22233 115.17 2.41651C115.17 2.61069 115.127 2.74015 115.018 2.80488C114.931 2.86961 114.8 2.91276 114.626 2.91276H113.798V2.91276ZM10.5869 6.4728L0 22.9569H7.23217L17.4269 7.20638L10.5869 6.4728ZM54.1759 6.106V0H33.5904C30.7803 0.172608 29.5604 1.51032 28.6455 2.45966C27.6652 3.47373 27.1206 5.60976 27.1206 5.60976V0.043152H16.1635C15.3357 0.043152 14.5515 0.388368 13.9633 1.20826C13.3534 2.00657 10.8483 6.106 10.8483 6.106H54.1759ZM110.16 6.106V0H88.1367C85.3484 0.172608 84.1067 1.51032 83.1918 2.45966C82.2115 3.47373 81.6669 5.60976 81.6669 5.60976V6.106H110.16ZM61.4081 0.021576H55.2433V6.106H61.4081V0.021576ZM81.6016 0.021576H75.4586V6.106H81.6016V0.021576ZM81.6016 8.30675L75.5457 7.93996V14.9953C75.5457 14.9953 75.5239 17.0235 73.5416 17.0235H63.1726C63.1726 17.0235 61.4081 16.8724 61.4081 15.0169V6.99062L55.3087 6.5591V17.3687C56.289 22.5469 61.016 22.9569 61.016 22.9569C61.016 22.9569 61.4953 22.9784 61.5824 23H75.6329C75.6329 23 81.6451 22.5253 81.6451 16.7861L81.6016 8.30675ZM20.847 22.9569H49.6449C54.6552 21.9644 55.178 17.4334 55.178 17.4334C55.4176 16.0957 55.2869 14.9953 55.2869 14.9953C55.1344 14.0891 53.3917 10.076 49.6449 9.73077C47.4012 9.51501 27.4256 7.93996 27.4256 7.93996C27.8177 9.92495 28.7109 10.939 29.3208 11.5C30.715 12.8161 32.9151 13.2045 32.9151 13.2045C33.4379 13.2477 48.3161 14.4775 48.3161 14.4775C48.7954 14.4991 49.6885 14.6285 49.6667 15.7936C49.6667 15.9447 49.536 16.9587 48.4033 16.9587H26.8592V7.89681L20.8687 7.46529C20.847 7.46529 20.847 22.9569 20.847 22.9569ZM81.6451 23H103.69C109.223 22.6764 110.007 17.4765 110.007 17.4765C110.204 16.1173 110.051 14.9953 110.051 14.9953C109.899 13.7655 108.134 10.0544 104.365 9.68762C102.144 9.47186 82.0372 8.30675 82.0372 8.30675C82.6254 10.3565 83.4314 10.9822 84.0413 11.5432C85.4355 12.8809 87.5049 13.1829 87.5049 13.1829C88.0278 13.2261 103.058 14.4775 103.058 14.4775C103.538 14.4991 104.518 14.5422 104.518 15.7073C104.518 16.0525 104.344 16.4193 104.126 16.6135C104.126 16.6135 103.603 16.894 103.102 16.894H81.7105L81.6451 23Z" fill="#034EA2"/>
</svg>
