<svg width="17" height="22" viewBox="0 0 17 22" fill="none" xmlns="http://www.w3.org/2000/svg">
<path d="M4.20952 14.015C4.20952 13.6633 3.96895 13.4536 3.54449 13.4536C3.37116 13.4536 3.25378 13.471 3.19238 13.4876V14.6158C3.26508 14.6324 3.35445 14.6379 3.47764 14.6379C3.93007 14.6379 4.20952 14.4061 4.20952 14.015Z" fill="#3C454E"/>
<path d="M6.83675 13.4653C6.64667 13.4653 6.52383 13.482 6.45117 13.4992V15.998C6.52387 16.0153 6.64125 16.0153 6.74738 16.0153C7.51849 16.0208 8.02141 15.5903 8.02141 14.678C8.02687 13.8847 7.56859 13.4653 6.83675 13.4653Z" fill="#3C454E"/>
<path d="M11.719 0.391968H3.33424C2.10931 0.391968 1.11235 1.40387 1.11235 2.6456V10.9791H0.895338C0.400949 10.9791 0 11.3854 0 11.8873V17.3948C0 17.8966 0.400906 18.3028 0.895338 18.3028H1.11235V19.3127C1.11235 20.5558 2.10931 21.5664 3.33424 21.5664H14.7749C15.999 21.5664 16.9961 20.5558 16.9961 19.3127V5.72572L11.719 0.391968ZM2.34884 12.8812C2.61124 12.8362 2.98006 12.8023 3.49969 12.8023C4.02482 12.8023 4.3991 12.904 4.65058 13.1082C4.8908 13.3007 5.05291 13.6183 5.05291 13.9922C5.05291 14.3659 4.93007 14.6836 4.70656 14.8989C4.41585 15.1764 3.98594 15.301 3.48302 15.301C3.37109 15.301 3.27077 15.2954 3.19231 15.2844V16.65H2.34884V12.8812ZM14.7749 20.1862H3.33424C2.85995 20.1862 2.47372 19.7945 2.47372 19.3127V18.3028H13.1387C13.6332 18.3028 14.0341 17.8966 14.0341 17.3948V11.8873C14.0341 11.3854 13.6332 10.9791 13.1387 10.9791H2.47372V2.6456C2.47372 2.16523 2.85999 1.77348 3.33424 1.77348L11.2099 1.76514V4.71785C11.2099 5.58031 11.8998 6.28075 12.7508 6.28075L15.6026 6.27245L15.6346 19.3127C15.6346 19.7945 15.2491 20.1862 14.7749 20.1862ZM5.59679 16.6327V12.8812C5.90963 12.8307 6.31738 12.8023 6.74768 12.8023C7.46281 12.8023 7.92654 12.9325 8.28991 13.21C8.68094 13.5048 8.92658 13.9749 8.92658 14.6496C8.92658 15.3806 8.66419 15.8852 8.30078 16.1966C7.90429 16.5309 7.30074 16.6894 6.5634 16.6894C6.12184 16.6894 5.809 16.6611 5.59679 16.6327ZM11.6945 14.4116V15.1141H10.3422V16.65H9.48752V12.8307H11.7893V13.5388H10.3422V14.4116H11.6945Z" fill="#3C454E"/>
</svg>
