<svg width="20" height="25" viewBox="0 0 20 25" fill="none" xmlns="http://www.w3.org/2000/svg">
<path d="M19 10.7314C19 17.7314 10 23.7314 10 23.7314C10 23.7314 1 17.7314 1 10.7314C1 8.3445 1.94821 6.05531 3.63604 4.36748C5.32387 2.67966 7.61305 1.73145 10 1.73145C12.3869 1.73145 14.6761 2.67966 16.364 4.36748C18.0518 6.05531 19 8.3445 19 10.7314Z" stroke="#EDA422" stroke-width="2" stroke-linecap="round" stroke-linejoin="round"/>
<path d="M10 13.7314C11.6569 13.7314 13 12.3883 13 10.7314C13 9.07459 11.6569 7.73145 10 7.73145C8.34315 7.73145 7 9.07459 7 10.7314C7 12.3883 8.34315 13.7314 10 13.7314Z" stroke="#EDA422" stroke-width="2" stroke-linecap="round" stroke-linejoin="round"/>
</svg>
