<svg width="22" height="23" viewBox="0 0 22 23" fill="none" xmlns="http://www.w3.org/2000/svg">
<path d="M20.8881 16.6877V19.6877C20.8892 19.9662 20.8322 20.2418 20.7206 20.497C20.6091 20.7522 20.4454 20.9813 20.2402 21.1695C20.035 21.3578 19.7927 21.5012 19.5289 21.5904C19.265 21.6796 18.9855 21.7127 18.7081 21.6877C15.631 21.3533 12.6751 20.3018 10.0781 18.6177C7.66194 17.0823 5.61345 15.0338 4.07812 12.6177C2.38809 10.0089 1.33636 7.03867 1.00812 3.94767C0.983127 3.67114 1.01599 3.39244 1.10462 3.1293C1.19324 2.86616 1.33569 2.62436 1.52288 2.4193C1.71008 2.21423 1.93792 2.05038 2.19191 1.9382C2.44589 1.82601 2.72046 1.76794 2.99812 1.76768H5.99812C6.48342 1.7629 6.95391 1.93475 7.32188 2.25121C7.68985 2.56766 7.93019 3.00712 7.99812 3.48768C8.12474 4.44774 8.35957 5.3904 8.69812 6.29768C8.83266 6.6556 8.86178 7.04459 8.78202 7.41856C8.70227 7.79252 8.51698 8.13579 8.24812 8.40768L6.97812 9.67767C8.40167 12.1812 10.4746 14.2541 12.9781 15.6777L14.2481 14.4077C14.52 14.1388 14.8633 13.9535 15.2372 13.8738C15.6112 13.794 16.0002 13.8231 16.3581 13.9577C17.2654 14.2962 18.2081 14.5311 19.1681 14.6577C19.6539 14.7262 20.0975 14.9709 20.4146 15.3452C20.7318 15.7195 20.9003 16.1973 20.8881 16.6877Z" stroke="#EDA422" stroke-width="2" stroke-linecap="round" stroke-linejoin="round"/>
</svg>
